P3
4 4
255
0 
255 0 100 255 0 0 255 0 255 255 255 0 
255 0 0 0 175 0 255 0 0 255 0 0 
255 0 0 255 0 0 240 175 0 255 0 255 
255 255 0 255 0 0 255 0 255 0 255 