P3
4 4
255
0 
0 255 100 0 255 0 0 255 255 0 0 0 
0 255 0 255 80 0 0 255 0 0 255 0 
0 255 0 0 255 0 15 80 0 0 255 255 
0 0 0 0 255 0 0 255 255 255 0 