P3
4 4
255
255 
0 0 155 0 0 255 0 0 0 0 255 255 
0 0 255 255 175 255 0 0 255 0 0 255 
0 0 255 0 0 255 15 175 255 0 0 0 
0 255 255 0 0 255 0 0 0 255 255 